<svg width="595" height="118" viewBox="0 0 595 118" fill="none" xmlns="http://www.w3.org/2000/svg">
<g clip-path="url(#clip0_30_3412)">
<path d="M50.766 110.892L65.6964 84.9976L80.6268 110.892C84.2493 117.175 92.2714 119.327 98.5456 115.7C104.82 112.073 106.969 104.04 103.347 97.7596L88.4165 71.8651H118.277C125.522 71.8651 131.395 65.9849 131.395 58.7307C131.395 51.4764 125.522 45.5962 118.277 45.5962H88.4165L103.347 19.7017C106.969 13.4194 104.82 5.38677 98.5456 1.7615C92.2714 -1.86564 84.2493 0.286808 80.6268 6.56913L65.6964 32.4637L50.766 6.56913C47.1436 0.286808 39.1214 -1.86564 32.8491 1.7615C26.575 5.38864 24.4253 13.4212 28.0478 19.7017L42.9782 45.5962H13.1173C5.87249 45.5981 0 51.4782 0 58.7307C0 65.9831 5.87249 71.8651 13.1173 71.8651H42.9782L28.0478 97.7596C24.4253 104.042 26.575 112.075 32.8491 115.7C39.1233 119.327 47.1454 117.175 50.766 110.892Z" fill="#8474FD"/>
<path d="M50.766 110.892L65.6965 84.9976L80.6269 110.892C84.2493 117.174 92.2715 119.327 98.5456 115.7C104.82 112.073 106.969 104.04 103.347 97.7596L80.8426 58.7306L65.6965 32.4636L50.5503 58.7306L28.0459 97.7596C24.4235 104.042 26.5732 112.074 32.8473 115.7C39.1215 119.327 47.1436 117.174 50.766 110.892Z" fill="#FF9742"/>
<path d="M159.92 35.5899H168.409C169.945 35.5899 171.189 36.8355 171.189 38.3735V110.477C171.189 112.015 169.945 113.261 168.409 113.261H159.92C158.384 113.261 157.14 112.015 157.14 110.477V38.3735C157.14 36.8355 158.384 35.5899 159.92 35.5899Z" fill="#292830"/>
<path d="M271.587 68.5637V110.477C271.587 112.015 270.343 113.261 268.807 113.261H260.318C258.782 113.261 257.538 112.015 257.538 110.477V70.1743C257.538 54.934 249.927 47.46 236.609 47.46C221.68 47.46 212.02 56.4013 212.02 73.2541V110.477C212.02 112.015 210.776 113.261 209.24 113.261H200.751C199.215 113.261 197.971 112.015 197.971 110.477V38.3736C197.971 36.8356 199.215 35.5899 200.751 35.5899H208.656C210.192 35.5899 211.436 36.8356 211.436 38.3736V40.3082C211.436 42.6766 214.19 43.9353 216.005 42.4197C221.827 37.558 229.913 34.8582 239.389 34.8582C258.269 34.8582 271.587 45.7023 271.587 68.5656V68.5637Z" fill="#292830"/>
<path d="M313.434 28.8496V32.8063C313.434 34.3443 314.678 35.59 316.214 35.59H333.194C334.73 35.59 335.974 36.8356 335.974 38.3736V44.3841C335.974 45.9221 334.73 47.1678 333.194 47.1678H316.506C314.97 47.1678 313.726 48.4134 313.726 49.9514V110.477C313.726 112.015 312.482 113.261 310.946 113.261H302.457C300.921 113.261 299.677 112.015 299.677 110.477V49.9514C299.677 48.4134 298.433 47.1678 296.897 47.1678H289.286C287.75 47.1678 286.506 45.9221 286.506 44.3841V38.3736C286.506 36.8356 287.75 35.59 289.286 35.59H296.897C298.433 35.59 299.677 34.3443 299.677 32.8063V28.7025C299.677 13.6093 308.752 3.64395 325.289 3.64395C330.317 3.64395 335.241 4.67176 339.029 6.8149C340.247 7.50384 340.781 8.97667 340.264 10.2782L338.077 15.7915C337.469 17.3239 335.677 17.9868 334.213 17.2327C331.781 15.9814 328.978 15.2199 326.02 15.2199C317.678 15.2199 313.433 19.9102 313.433 28.8477L313.434 28.8496Z" fill="#292830"/>
<path d="M340.945 74.4252C340.945 51.2696 358.068 34.8562 381.34 34.8562C404.613 34.8562 421.589 51.2696 421.589 74.4252C421.589 97.5807 404.611 114.139 381.34 114.139C358.07 114.139 340.945 97.577 340.945 74.4252ZM407.389 74.4252C407.389 57.8647 396.267 47.1658 381.338 47.1658C366.41 47.1658 355.141 57.8647 355.141 74.4252C355.141 90.9856 366.41 101.83 381.338 101.83C396.267 101.83 407.389 90.9856 407.389 74.4252Z" fill="#292830"/>
<path d="M468.704 3.64206C473.733 3.64206 478.657 4.66987 482.445 6.81301C483.663 7.50195 484.196 8.97477 483.679 10.2763L481.493 15.7896C480.885 17.322 479.092 17.9849 477.628 17.2308C475.196 15.9795 472.394 15.218 469.435 15.218C461.093 15.218 456.848 19.9083 456.848 28.8458V32.8025C456.848 34.3405 458.092 35.5862 459.628 35.5862H476.608C478.144 35.5862 479.388 36.8319 479.388 38.3699V44.3803C479.388 45.9183 478.144 47.164 476.608 47.164H459.92C458.384 47.164 457.14 48.4097 457.14 49.9477V110.473C457.14 112.011 455.896 113.257 454.36 113.257H445.871C444.335 113.257 443.091 112.011 443.091 110.473V49.9477C443.091 48.4097 441.847 47.164 440.311 47.164H432.7C431.164 47.164 429.92 45.9183 429.92 44.3803V38.3699C429.92 36.8319 431.164 35.5862 432.7 35.5862H440.311C441.847 35.5862 443.091 34.3405 443.091 32.8025V28.6987C443.091 13.6055 452.165 3.6402 468.703 3.6402L468.704 3.64206ZM506.758 7.30458V110.475C506.758 112.013 505.514 113.259 503.978 113.259H495.49C493.954 113.259 492.71 112.013 492.71 110.475V7.30458C492.71 5.76658 493.954 4.52091 495.49 4.52091H503.978C505.514 4.52091 506.758 5.76658 506.758 7.30458Z" fill="#292830"/>
<path d="M595 66.3646V110.475C595 112.013 593.756 113.259 592.22 113.259H584.462C582.926 113.259 581.682 112.013 581.682 110.475V110.101C581.682 107.76 578.98 106.474 577.156 107.935C572.196 111.914 565.158 114.137 556.217 114.137C538.655 114.137 527.531 104.759 527.531 91.2761C527.531 78.8194 535.58 68.5618 558.705 68.5618H578.171C579.707 68.5618 580.951 67.3161 580.951 65.7781C580.951 53.908 574.073 47.0205 560.169 47.0205C552.107 47.0205 543.935 49.4839 537.997 53.5319C536.654 54.4461 534.813 53.9899 534.025 52.5674L530.91 46.9516C530.22 45.7078 530.574 44.1345 531.741 43.3226C539.646 37.8316 550.343 34.8562 561.781 34.8562C583.002 34.8562 595.002 45.1157 595.002 66.3646H595ZM580.949 88.971V81.4579C580.949 79.9199 579.705 78.6742 578.169 78.6742H559.291C545.385 78.6742 541.434 84.0963 541.434 90.6914C541.434 98.4577 547.873 103.295 558.558 103.295C569.243 103.295 577.085 98.6607 580.72 90.0788C580.869 89.7288 580.949 89.3527 580.949 88.9728V88.971Z" fill="#292830"/>
<path d="M164.166 25.5091C170.285 25.5091 175.245 20.5423 175.245 14.4155C175.245 8.28859 170.285 3.32178 164.166 3.32178C158.047 3.32178 153.086 8.28859 153.086 14.4155C153.086 20.5423 158.047 25.5091 164.166 25.5091Z" fill="#FF9742"/>
</g>
<defs>
<clipPath id="clip0_30_3412">
<rect width="595" height="117.461" fill="white"/>
</clipPath>
</defs>
</svg>
