<svg xmlns="http://www.w3.org/2000/svg" width="183" height="36" fill="none" class="Header_infoflaLogo__6ETc4"><g clip-path="url(#Infofla_logo_svg__a)"><path fill="#8474FD" d="m15.558 33.986 4.576-7.936 4.576 7.936a4.017 4.017 0 0 0 5.492 1.473 4.03 4.03 0 0 0 1.471-5.498l-4.576-7.936h9.152c2.22 0 4.02-1.802 4.02-4.026s-1.8-4.025-4.02-4.025h-9.152l4.576-7.937A4.03 4.03 0 0 0 30.202.54a4.017 4.017 0 0 0-5.492 1.474l-4.576 7.936-4.576-7.936A4.017 4.017 0 0 0 10.067.539a4.03 4.03 0 0 0-1.472 5.498l4.576 7.937H4.02A4.023 4.023 0 0 0 0 17.999c0 2.223 1.8 4.026 4.02 4.026h9.152L8.595 29.96a4.027 4.027 0 0 0 1.472 5.498 4.016 4.016 0 0 0 5.491-1.473"></path><path fill="#FF9742" d="m15.558 33.986 4.576-7.936 4.576 7.936a4.017 4.017 0 0 0 5.492 1.473 4.03 4.03 0 0 0 1.472-5.498l-6.898-11.962-4.642-8.05-4.642 8.05-6.897 11.962a4.03 4.03 0 0 0 1.471 5.498 4.017 4.017 0 0 0 5.492-1.473"></path><path fill="#fff" d="M49.012 10.908h2.602c.47 0 .852.381.852.853v22.098a.85.85 0 0 1-.852.853h-2.602a.85.85 0 0 1-.852-.853V11.761c0-.472.381-.853.852-.853M83.237 21.013V33.86a.85.85 0 0 1-.852.853h-2.602a.85.85 0 0 1-.852-.853V21.507c0-4.67-2.332-6.962-6.414-6.962-4.576 0-7.536 2.74-7.536 7.906v11.408a.85.85 0 0 1-.852.853h-2.602a.85.85 0 0 1-.852-.853V11.761c0-.472.381-.854.852-.854h2.423c.47 0 .852.382.852.854v.593c0 .725.844 1.111 1.4.647 1.784-1.49 4.262-2.318 7.167-2.318 5.786 0 9.868 3.324 9.868 10.331M96.062 8.842v1.213c0 .47.381.853.852.853h5.204c.47 0 .852.381.852.853v1.842a.853.853 0 0 1-.852.853h-5.115a.85.85 0 0 0-.852.853v18.55a.85.85 0 0 1-.852.853h-2.602a.85.85 0 0 1-.852-.853V15.31a.85.85 0 0 0-.852-.853h-2.332a.85.85 0 0 1-.852-.853V11.76c0-.472.38-.853.852-.853h2.332c.471 0 .852-.382.852-.853V8.797c0-4.626 2.782-7.68 7.85-7.68 1.541 0 3.05.315 4.211.972a.86.86 0 0 1 .379 1.061l-.671 1.69a.85.85 0 0 1-1.184.441 5.5 5.5 0 0 0-2.511-.616c-2.557 0-3.858 1.437-3.858 4.176M104.493 22.81c0-7.097 5.248-12.127 12.381-12.127 7.132 0 12.335 5.03 12.335 12.127s-5.203 12.172-12.335 12.172-12.381-5.076-12.381-12.172m20.364 0c0-5.076-3.409-8.355-7.984-8.355s-8.029 3.28-8.029 8.355 3.454 8.399 8.029 8.399 7.984-3.324 7.984-8.4M143.65 1.116c1.541 0 3.05.315 4.211.972a.856.856 0 0 1 .378 1.061l-.67 1.69a.85.85 0 0 1-1.184.442 5.5 5.5 0 0 0-2.511-.617c-2.557 0-3.858 1.437-3.858 4.177v1.212c0 .472.381.853.852.853h5.204c.471 0 .852.382.852.853v1.843a.85.85 0 0 1-.852.853h-5.115a.853.853 0 0 0-.852.853v18.55a.85.85 0 0 1-.852.853h-2.601a.853.853 0 0 1-.853-.853v-18.55a.85.85 0 0 0-.852-.853h-2.332a.85.85 0 0 1-.852-.853v-1.843c0-.47.381-.853.852-.853h2.332a.85.85 0 0 0 .852-.853V8.795c0-4.625 2.782-7.68 7.85-7.68zm11.663 1.123v31.62a.853.853 0 0 1-.852.853h-2.602a.85.85 0 0 1-.852-.853V2.239c0-.472.381-.854.852-.854h2.602c.47 0 .852.382.852.854M182.358 20.34v13.519a.853.853 0 0 1-.852.853h-2.378a.85.85 0 0 1-.852-.854v-.114a.852.852 0 0 0-1.387-.664c-1.52 1.22-3.677 1.901-6.418 1.901-5.382 0-8.791-2.874-8.791-7.007 0-3.817 2.466-6.961 9.554-6.961h5.966a.85.85 0 0 0 .852-.853c0-3.638-2.108-5.75-6.37-5.75-2.47 0-4.975.756-6.795 1.996a.85.85 0 0 1-1.217-.295l-.955-1.721a.85.85 0 0 1 .255-1.113c2.423-1.682 5.701-2.594 9.207-2.594 6.504 0 10.181 3.144 10.181 9.656m-4.307 6.928v-2.303a.85.85 0 0 0-.852-.853h-5.786c-4.261 0-5.473 1.662-5.473 3.683 0 2.38 1.974 3.863 5.249 3.863s5.678-1.42 6.792-4.05a.9.9 0 0 0 .07-.34"></path><path fill="#FF9742" d="M50.314 7.818a3.4 3.4 0 0 0 3.395-3.4c0-1.878-1.52-3.4-3.395-3.4a3.4 3.4 0 0 0-3.396 3.4c0 1.878 1.52 3.4 3.396 3.4"></path></g><defs><clipPath id="Infofla_logo_svg__a"><path fill="#fff" d="M0 0h182.358v36H0z"></path></clipPath></defs></svg>
